<?xml version="1.0" encoding="UTF-8" standalone="no"?>
<svg
   xmlns:dc="http://purl.org/dc/elements/1.1/"
   xmlns:cc="http://creativecommons.org/ns#"
   xmlns:rdf="http://www.w3.org/1999/02/22-rdf-syntax-ns#"
   xmlns:svg="http://www.w3.org/2000/svg"
   xmlns="http://www.w3.org/2000/svg"
   xmlns:sodipodi="http://sodipodi.sourceforge.net/DTD/sodipodi-0.dtd"
   xmlns:inkscape="http://www.inkscape.org/namespaces/inkscape"
   width="310mm"
   height="120mm"
   viewBox="0 0 310 120"
   version="1.1"
   id="svg8"
   inkscape:version="1.0 (4035a4fb49, 2020-05-01)"
   sodipodi:docname="Logo_capp-ella_quer_vektor.svg"
   inkscape:export-filename="C:\Users\Anna\Documents\a cappella\Logo\Logo_capp&amp;ella_final\Logo_capp-ella_quer_transparenter-background.png"
   inkscape:export-xdpi="299"
   inkscape:export-ydpi="299">
  <defs
     id="defs2">
    <rect
       x="-87.3125"
       y="164.79762"
       width="344.71429"
       height="124.73214"
       id="rect999" />
    <rect
       x="13.985119"
       y="54.806549"
       width="254.37798"
       height="122.84226"
       id="rect841" />
    <rect
       x="42.711311"
       y="63.5"
       width="213.93452"
       height="66.523811"
       id="rect835" />
    <rect
       id="rect841-8"
       height="122.84226"
       width="254.37798"
       y="54.806549"
       x="13.985119" />
    <rect
       id="rect856"
       height="122.84226"
       width="254.37798"
       y="54.806549"
       x="13.985119" />
    <rect
       id="rect999-8"
       height="124.73214"
       width="344.71429"
       y="164.79762"
       x="-87.3125" />
    <rect
       id="rect1012"
       height="124.73214"
       width="344.71429"
       y="164.79762"
       x="-87.3125" />
  </defs>
  <sodipodi:namedview
     id="base"
     pagecolor="#ffffff"
     bordercolor="#666666"
     borderopacity="1.0"
     inkscape:pageopacity="0.0"
     inkscape:pageshadow="2"
     inkscape:zoom="0.77079402"
     inkscape:cx="657.19777"
     inkscape:cy="200.14238"
     inkscape:document-units="mm"
     inkscape:current-layer="layer1"
     inkscape:document-rotation="0"
     showgrid="false"
     showguides="true"
     inkscape:guide-bbox="true"
     inkscape:pagecheckerboard="true"
     inkscape:window-width="2160"
     inkscape:window-height="1350"
     inkscape:window-x="-11"
     inkscape:window-y="-11"
     inkscape:window-maximized="1">
    <inkscape:grid
       type="xygrid"
       id="grid845" />
  </sodipodi:namedview>
  <metadata
     id="metadata5">
    <rdf:RDF>
      <cc:Work
         rdf:about="">
        <dc:format>image/svg+xml</dc:format>
        <dc:type
           rdf:resource="http://purl.org/dc/dcmitype/StillImage" />
        <dc:title></dc:title>
      </cc:Work>
    </rdf:RDF>
  </metadata>
  <g
     style="display:none"
     id="g954"
     inkscape:groupmode="layer"
     inkscape:label="Entwurf_2_noun-clef">
    <path
       style="display:inline;fill:none;stroke:#000000;stroke-width:2;stroke-linecap:butt;stroke-linejoin:miter;stroke-opacity:1"
       d="m 85.119036,145.07576 30.549714,0.0715"
       id="path926"
       sodipodi:nodetypes="cc" />
    <g
       style="font-style:normal;font-weight:normal;font-size:50.8px;line-height:1;font-family:sans-serif;letter-spacing:-1.53458px;white-space:pre;shape-inside:url(#rect999);fill:#000000;fill-opacity:1;stroke:none"
       id="g944"
       transform="translate(109.20556,-87.220255)"
       aria-label="capp &amp; ella">
      <path
         id="path928"
         style="font-style:normal;font-variant:normal;font-weight:normal;font-stretch:normal;font-size:50.8px;font-family:Quicksand;-inkscape-font-specification:Quicksand"
         d="m -71.5645,204.79325 c 0,0 0,0 0,0 2.9464,0 5.7404,-1.016 7.8232,-2.6416 0.6096,-0.4572 0.7112,-1.2192 0.254,-1.778 -0.4064,-0.4572 -1.1176,-0.6096 -1.6764,-0.2032 -1.778,1.3716 -4.0132,2.1844 -6.4008,2.1844 -5.7912,0 -10.3632,-4.4704 -10.3632,-10.0584 0,-5.4864 4.572,-10.0076 10.3632,-10.0076 2.3876,0 4.6228,0.8128 6.4008,2.2352 0.5588,0.4064 1.27,0.254 1.6764,-0.2032 0.4572,-0.5588 0.3556,-1.3208 -0.1524,-1.6764 -2.1844,-1.7272 -4.9784,-2.7432 -7.9248,-2.7432 -7.112,0 -12.8016,5.4864 -12.8016,12.3952 0,7.0104 5.6896,12.4968 12.8016,12.4968 z" />
      <path
         id="path930"
         style="font-style:normal;font-variant:normal;font-weight:normal;font-stretch:normal;font-size:50.8px;font-family:Quicksand;-inkscape-font-specification:Quicksand"
         d="m -35.491206,179.90125 c -0.6604,0 -1.2192,0.508 -1.2192,1.2192 v 3.6576 c -2.1336,-2.9464 -5.5372,-4.8768 -9.3472,-4.8768 -6.5532,0 -11.7856,5.6388 -11.7856,12.446 0,6.8072 5.2324,12.446 11.7856,12.446 3.81,0 7.2136,-1.9812 9.3472,-4.9276 v 3.7084 c 0,0.6604 0.5588,1.2192 1.2192,1.2192 0.6604,0 1.2192,-0.5588 1.2192,-1.2192 v -22.4536 c 0,-0.7112 -0.5588,-1.2192 -1.2192,-1.2192 z m -10.5664,22.4536 c -5.08,0 -9.3472,-4.4196 -9.3472,-10.0076 0,-5.588 4.2672,-10.0584 9.3472,-10.0584 5.1308,0 9.3472,4.4704 9.3472,10.0584 0,5.588 -4.2164,10.0076 -9.3472,10.0076 z" />
      <path
         sodipodi:nodetypes="sascssscssscccscsscsc"
         id="path932"
         style="font-style:normal;font-variant:normal;font-weight:normal;font-stretch:normal;font-size:50.8px;font-family:Quicksand;-inkscape-font-specification:Quicksand"
         d="m -25.233043,232.06215 c 0,0.6604 0.644494,1.21334 1.2192,1.2192 0.586802,0.006 1.27,-0.5588 1.27,-1.2192 v -32.2981 c 2.1336,2.9464 5.588,4.8768 9.4488,4.8768 6.7055994,0 12.0395993,-5.6388 12.0395993,-12.3952 0,-6.8072 -5.3339999,-12.3444 -12.0395993,-12.3444 -3.8608,0 -7.3152,1.9304 -9.4488,4.826 v -3.6068 c 0,-0.6604 -0.5588,-1.2192 -1.27,-1.2192 -0.6604,0 -1.2192,0.5588 -1.2192,1.2192 v 10.6172 0.508 0.508 z m 2.4892,-40.2229 c 0.2032,-5.2832 4.4196,-9.4488 9.4488,-9.4488 5.2831994,0 9.5503994,4.3688 9.5503994,9.8552 0,5.4864 -4.2672,9.906 -9.5503994,9.9568 -5.1308,-0.0508 -9.4488,-4.4704 -9.4488,-9.9568 z" />
      <path
         id="path936"
         style="font-style:normal;font-variant:normal;font-weight:normal;font-stretch:normal;font-size:50.8px;font-family:Quicksand;-inkscape-font-specification:Quicksand"
         d="m 100.83452,204.79325 c 4.2164,0 7.9248,-2.2352 10.0584,-5.6388 0.3556,-0.6096 0.1524,-1.3208 -0.4064,-1.7272 -0.508,-0.3048 -1.27,-0.2032 -1.6256,0.4064 -1.6764,2.794 -4.7244,4.5212 -8.0264,4.5212 -5.130773,0 -9.397949,-4.1148 -9.651949,-9.5504 h 20.421549 c 0.6604,0 1.2192,-0.4572 1.2192,-1.1176 v -0.1524 -0.0508 c -0.508,-6.5024 -5.588,-11.5824 -11.9888,-11.5824 -6.705564,0 -12.090342,5.588 -12.090342,12.4968 0,6.8072 5.384778,12.3952 12.090342,12.3952 z m 0,-22.4536 c 4.572,0 8.5344,3.4036 9.3472,8.0772 H 91.334971 c 0.914394,-4.7244 4.825973,-8.0772 9.499549,-8.0772 z" />
      <path
         id="path938"
         style="font-style:normal;font-variant:normal;font-weight:normal;font-stretch:normal;font-size:50.8px;font-family:Quicksand;-inkscape-font-specification:Quicksand"
         d="m 120.29939,203.57405 c 0,0.6604 0.5588,1.2192 1.2192,1.2192 0.7112,0 1.27,-0.5588 1.27,-1.2192 v -33.12159 c 0,-0.6604 -0.5588,-1.2192 -1.27,-1.2192 -0.6604,0 -1.2192,0.5588 -1.2192,1.2192 z" />
      <path
         id="path940"
         style="font-style:normal;font-variant:normal;font-weight:normal;font-stretch:normal;font-size:50.8px;font-family:Quicksand;-inkscape-font-specification:Quicksand"
         d="m 131.36559,203.57405 c 0,0.6604 0.5588,1.2192 1.2192,1.2192 0.7112,0 1.27,-0.5588 1.27,-1.2192 v -33.12159 c 0,-0.6604 -0.5588,-1.2192 -1.27,-1.2192 -0.6604,0 -1.2192,0.5588 -1.2192,1.2192 z" />
      <path
         id="path942"
         style="font-style:normal;font-variant:normal;font-weight:normal;font-stretch:normal;font-size:50.8px;font-family:Quicksand;-inkscape-font-specification:Quicksand"
         d="m 161.73579,179.90125 c -0.6604,0 -1.2192,0.508 -1.2192,1.2192 v 3.6576 c -2.1336,-2.9464 -5.5372,-4.8768 -9.3472,-4.8768 -6.5532,0 -11.7856,5.6388 -11.7856,12.446 0,6.8072 5.2324,12.446 11.7856,12.446 3.81,0 7.2136,-1.9812 9.3472,-4.9276 v 3.7084 c 0,0.6604 0.5588,1.2192 1.2192,1.2192 0.6604,0 1.2192,-0.5588 1.2192,-1.2192 v -22.4536 c 0,-0.7112 -0.5588,-1.2192 -1.2192,-1.2192 z m -10.5664,22.4536 c -5.08,0 -9.3472,-4.4196 -9.3472,-10.0076 0,-5.588 4.2672,-10.0584 9.3472,-10.0584 5.1308,0 9.3472,4.4704 9.3472,10.0584 0,5.588 -4.2164,10.0076 -9.3472,10.0076 z" />
    </g>
    <path
       d="m 114.52015,144.93561 c 0,0.6604 0.6445,1.21334 1.2192,1.2192 0.58681,0.006 1.27,-0.5588 1.27,-1.2192 v -32.2981 c 2.1336,2.9464 5.588,4.8768 9.4488,4.8768 6.7056,0 12.0396,-5.6388 12.0396,-12.3952 0,-6.807187 -5.334,-12.344387 -12.0396,-12.344387 -3.8608,0 -7.3152,1.9304 -9.4488,4.826 v -3.6068 c 0,-0.6604 -0.5588,-1.2192 -1.27,-1.2192 -0.6604,0 -1.2192,0.5588 -1.2192,1.2192 v 10.617187 0.508 0.508 z m 2.4892,-40.2229 c 0.2032,-5.283187 4.4196,-9.448787 9.4488,-9.448787 5.2832,0 9.5504,4.3688 9.5504,9.855187 0,5.4864 -4.2672,9.906 -9.5504,9.9568 -5.1308,-0.0508 -9.4488,-4.4704 -9.4488,-9.9568 z"
       style="font-style:normal;font-variant:normal;font-weight:normal;font-stretch:normal;font-size:50.8px;line-height:1;font-family:Quicksand;-inkscape-font-specification:Quicksand;letter-spacing:-1.53458px;white-space:pre;shape-inside:url(#rect999);fill:#000000;fill-opacity:1;stroke:none;stroke-width:1"
       id="path946"
       sodipodi:nodetypes="sascssscssscccscsscsc" />
    <path
       sodipodi:nodetypes="cc"
       id="path948"
       d="m 85.493612,139.39022 30.549718,0.0715"
       style="display:inline;fill:none;stroke:#000000;stroke-width:2;stroke-linecap:butt;stroke-linejoin:miter;stroke-opacity:1" />
    <path
       id="path952"
       d="m 170.72147,94.403875 c -0.0336,-1.875408 -0.0665,-3.751473 -0.0825,-5.626249 -0.007,-0.686124 -0.0265,-1.388367 -0.047,-2.09833 2.39919,-1.485644 4.82738,-2.944868 6.86772,-4.878252 2.72196,-2.578285 5.81822,-6.224768 5.81565,-10.14759 -0.002,-6.52368 -7.37925,-5.270625 -10.35182,-1.999129 -3.42482,3.770807 -4.61669,9.076864 -4.71721,14.014408 -0.0121,0.592694 -0.0195,1.185412 -0.0251,1.778131 -3.83779,2.580209 -7.15567,5.225507 -9.63926,9.438921 -4.75009,8.060215 -2.27292,20.036825 7.79735,22.164805 0.72351,0.15266 1.43282,0.23643 2.1254,0.2635 -0.0219,0.42585 -0.0411,0.85105 -0.0728,1.27627 -0.20478,2.86756 -0.44003,7.11057 -3.2045,8.75857 -0.66616,0.39556 -1.37225,0.73702 -2.10476,1.00246 0.44131,-0.60818 0.72542,-1.3684 0.81692,-2.271 0.0195,-0.0939 0.0317,-0.19577 0.0298,-0.30602 0.005,-0.11733 -0.007,-0.21963 -0.0251,-0.31825 -0.44452,-5.16109 -8.17102,-5.3679 -9.56003,-0.81627 -0.0819,0.22231 -0.13201,0.45678 -0.15656,0.69967 -0.0195,0.14244 -0.0392,0.2841 -0.049,0.43485 -0.0688,1.12617 0.29895,2.31609 0.95608,3.02735 0.77956,1.00373 1.56746,1.58616 2.50033,1.9785 3.31275,1.3935 7.77674,-0.0195 10.33184,-2.43979 2.60213,-2.46619 3.0061,-7.23364 3.08727,-11.20416 8.43,-1.51078 13.27604,-12.04425 6.91665,-19.453815 -1.9424,-2.26454 -4.57158,-3.34366 -7.20916,-3.27858 z m 6.99784,-25.032373 c 2.99898,-0.742176 3.66901,2.290327 2.53706,4.833183 -1.86381,4.186967 -5.9999,7.269708 -9.70822,9.684364 0.007,-1.404463 0.0811,-2.800549 0.33629,-4.128991 0.69453,-3.596227 2.75291,-9.379019 6.83487,-10.388556 z m -18.90553,36.399548 c -0.69063,-5.22166 1.15127,-9.418955 4.43889,-13.332796 1.40897,-1.678279 3.11303,-3.004139 4.91693,-4.212098 0.007,2.19239 0.0425,4.385421 0.0895,6.577149 -1.43796,0.44132 -2.81408,1.23438 -4.00981,2.39341 -3.33272,3.230255 -3.98405,10.062545 0.0355,13.040285 0.35949,0.31761 0.76151,0.56759 1.20603,0.74989 1.40191,0.71449 2.64209,-1.39738 1.23504,-2.11313 -3.55948,-1.81293 -3.22835,-6.28532 -1.36645,-9.196707 0.74022,-1.158989 1.7878,-1.951418 2.95904,-2.403698 0.0349,1.481779 0.0721,2.964205 0.1061,4.445365 0.0979,4.41181 0.26609,8.83265 0.14244,13.24449 -4.95624,-0.10697 -9.08909,-4.16958 -9.75331,-9.19216 z m 12.59896,8.81656 c -0.12253,0.0361 -0.24673,0.0644 -0.36851,0.0939 0.002,-0.26994 0.005,-0.53343 0.01,-0.78534 0.0612,-3.68447 -0.0754,-7.37602 -0.15778,-11.06047 -0.0431,-2.00235 -0.0889,-4.005976 -0.12948,-6.010235 1.8258,-10e-4 3.66254,0.68804 4.96716,2.040969 5.12051,5.313796 2.58924,13.744466 -4.32033,15.721026 z"
       style="stroke-width:0.264583" />
  </g>
  <g
     style="display:none"
     inkscape:label="weiß"
     id="layer1"
     inkscape:groupmode="layer">
    <rect
       inkscape:export-ydpi="299"
       inkscape:export-xdpi="299"
       y="0.34326342"
       x="0.34326151"
       height="119.45473"
       width="309.96445"
       id="rect873"
       style="fill:#ffffff;stroke:none;stroke-width:4.99999" />
  </g>
  <g
     style="display:inline"
     id="g924"
     inkscape:groupmode="layer"
     inkscape:label="Ebene 1 Kopie 1">
    <g
       style="stroke-width:0.874232"
       transform="matrix(1.1438613,0,0,1.1438613,-5.00496,-61.011031)"
       id="g1027">
      <path
         sodipodi:nodetypes="cc"
         id="path896"
         d="m 80.356533,145.07576 30.549687,0.0715"
         style="display:inline;fill:none;stroke:#000000;stroke-width:1.74846;stroke-linecap:butt;stroke-linejoin:miter;stroke-opacity:1" />
      <g
         aria-label="capp &amp; ella"
         transform="translate(104.44303,-87.220255)"
         id="g914"
         style="font-style:normal;font-weight:normal;font-size:50.8px;line-height:1;font-family:sans-serif;letter-spacing:-1.53458px;white-space:pre;shape-inside:url(#rect999);fill:#000000;fill-opacity:1;stroke:none;stroke-width:0.874232">
        <path
           d="m -71.5645,204.79325 c 0,0 0,0 0,0 2.9464,0 5.7404,-1.016 7.8232,-2.6416 0.6096,-0.4572 0.7112,-1.2192 0.254,-1.778 -0.4064,-0.4572 -1.1176,-0.6096 -1.6764,-0.2032 -1.778,1.3716 -4.0132,2.1844 -6.4008,2.1844 -5.7912,0 -10.3632,-4.4704 -10.3632,-10.0584 0,-5.4864 4.572,-10.0076 10.3632,-10.0076 2.3876,0 4.6228,0.8128 6.4008,2.2352 0.5588,0.4064 1.27,0.254 1.6764,-0.2032 0.4572,-0.5588 0.3556,-1.3208 -0.1524,-1.6764 -2.1844,-1.7272 -4.9784,-2.7432 -7.9248,-2.7432 -7.112,0 -12.8016,5.4864 -12.8016,12.3952 0,7.0104 5.6896,12.4968 12.8016,12.4968 z"
           style="font-style:normal;font-variant:normal;font-weight:normal;font-stretch:normal;font-size:50.8px;font-family:Quicksand;-inkscape-font-specification:Quicksand;stroke-width:0.874232"
           id="path898" />
        <path
           d="m -35.491206,179.90125 c -0.6604,0 -1.2192,0.508 -1.2192,1.2192 v 3.6576 c -2.1336,-2.9464 -5.5372,-4.8768 -9.3472,-4.8768 -6.5532,0 -11.7856,5.6388 -11.7856,12.446 0,6.8072 5.2324,12.446 11.7856,12.446 3.81,0 7.2136,-1.9812 9.3472,-4.9276 v 3.7084 c 0,0.6604 0.5588,1.2192 1.2192,1.2192 0.6604,0 1.2192,-0.5588 1.2192,-1.2192 v -22.4536 c 0,-0.7112 -0.5588,-1.2192 -1.2192,-1.2192 z m -10.5664,22.4536 c -5.08,0 -9.3472,-4.4196 -9.3472,-10.0076 0,-5.588 4.2672,-10.0584 9.3472,-10.0584 5.1308,0 9.3472,4.4704 9.3472,10.0584 0,5.588 -4.2164,10.0076 -9.3472,10.0076 z"
           style="font-style:normal;font-variant:normal;font-weight:normal;font-stretch:normal;font-size:50.8px;font-family:Quicksand;-inkscape-font-specification:Quicksand;stroke-width:0.874232"
           id="path900" />
        <path
           d="m -25.233043,232.06215 c 0,0.6604 0.644494,1.21334 1.2192,1.2192 0.586802,0.006 1.27,-0.5588 1.27,-1.2192 v -32.2981 c 2.1336,2.9464 5.588,4.8768 9.4488,4.8768 6.7055994,0 12.0395993,-5.6388 12.0395993,-12.3952 0,-6.8072 -5.3339999,-12.3444 -12.0395993,-12.3444 -3.8608,0 -7.3152,1.9304 -9.4488,4.826 v -3.6068 c 0,-0.6604 -0.5588,-1.2192 -1.27,-1.2192 -0.6604,0 -1.2192,0.5588 -1.2192,1.2192 v 10.6172 0.508 0.508 z m 2.4892,-40.2229 c 0.2032,-5.2832 4.4196,-9.4488 9.4488,-9.4488 5.2831994,0 9.5503994,4.3688 9.5503994,9.8552 0,5.4864 -4.2672,9.906 -9.5503994,9.9568 -5.1308,-0.0508 -9.4488,-4.4704 -9.4488,-9.9568 z"
           style="font-style:normal;font-variant:normal;font-weight:normal;font-stretch:normal;font-size:50.8px;font-family:Quicksand;-inkscape-font-specification:Quicksand;stroke-width:0.874232"
           id="path902"
           sodipodi:nodetypes="sascssscssscccscsscsc" />
        <path
           d="m 93.955346,204.79325 c 4.216376,0 7.924764,-2.2352 10.058364,-5.6388 0.3556,-0.6096 0.1524,-1.3208 -0.4064,-1.7272 -0.508,-0.3048 -1.27,-0.2032 -1.6256,0.4064 -1.6764,2.794 -4.724382,4.5212 -8.026364,4.5212 -5.13077,0 -9.397946,-4.1148 -9.651946,-9.5504 h 20.42151 c 0.6604,0 1.2192,-0.4572 1.2192,-1.1176 v -0.1524 -0.0508 c -0.508,-6.5024 -5.588,-11.5824 -11.988764,-11.5824 -6.705561,0 -12.090339,5.588 -12.090339,12.4968 0,6.8072 5.384778,12.3952 12.090339,12.3952 z m 0,-22.4536 c 4.571973,0 8.534364,3.4036 9.347164,8.0772 H 84.4558 c 0.914394,-4.7244 4.825973,-8.0772 9.499546,-8.0772 z"
           style="font-style:normal;font-variant:normal;font-weight:normal;font-stretch:normal;font-size:50.8px;font-family:Quicksand;-inkscape-font-specification:Quicksand;stroke-width:0.874232"
           id="path906" />
        <path
           d="m 113.42018,203.57405 c 0,0.6604 0.5588,1.2192 1.2192,1.2192 0.7112,0 1.27,-0.5588 1.27,-1.2192 v -33.12159 c 0,-0.6604 -0.5588,-1.2192 -1.27,-1.2192 -0.6604,0 -1.2192,0.5588 -1.2192,1.2192 z"
           style="font-style:normal;font-variant:normal;font-weight:normal;font-stretch:normal;font-size:50.8px;font-family:Quicksand;-inkscape-font-specification:Quicksand;stroke-width:0.874232"
           id="path908" />
        <path
           d="m 124.48638,203.57405 c 0,0.6604 0.5588,1.2192 1.2192,1.2192 0.7112,0 1.27,-0.5588 1.27,-1.2192 v -33.12159 c 0,-0.6604 -0.5588,-1.2192 -1.27,-1.2192 -0.6604,0 -1.2192,0.5588 -1.2192,1.2192 z"
           style="font-style:normal;font-variant:normal;font-weight:normal;font-stretch:normal;font-size:50.8px;font-family:Quicksand;-inkscape-font-specification:Quicksand;stroke-width:0.874232"
           id="path910" />
        <path
           d="m 154.85658,179.90125 c -0.6604,0 -1.2192,0.508 -1.2192,1.2192 v 3.6576 c -2.1336,-2.9464 -5.5372,-4.8768 -9.3472,-4.8768 -6.5532,0 -11.7856,5.6388 -11.7856,12.446 0,6.8072 5.2324,12.446 11.7856,12.446 3.81,0 7.2136,-1.9812 9.3472,-4.9276 v 3.7084 c 0,0.6604 0.5588,1.2192 1.2192,1.2192 0.6604,0 1.2192,-0.5588 1.2192,-1.2192 v -22.4536 c 0,-0.7112 -0.5588,-1.2192 -1.2192,-1.2192 z m -10.5664,22.4536 c -5.08,0 -9.3472,-4.4196 -9.3472,-10.0076 0,-5.588 4.2672,-10.0584 9.3472,-10.0584 5.1308,0 9.3472,4.4704 9.3472,10.0584 0,5.588 -4.2164,10.0076 -9.3472,10.0076 z"
           style="font-style:normal;font-variant:normal;font-weight:normal;font-stretch:normal;font-size:50.8px;font-family:Quicksand;-inkscape-font-specification:Quicksand;stroke-width:0.874232"
           id="path912" />
      </g>
      <path
         sodipodi:nodetypes="sascssscssscccscsscsc"
         id="path916"
         style="font-style:normal;font-variant:normal;font-weight:normal;font-stretch:normal;font-size:50.8px;line-height:1;font-family:Quicksand;-inkscape-font-specification:Quicksand;letter-spacing:-1.53458px;white-space:pre;shape-inside:url(#rect999);fill:#000000;fill-opacity:1;stroke:none;stroke-width:0.874232"
         d="m 109.75762,144.93561 c 0,0.6604 0.6445,1.21334 1.2192,1.2192 0.58681,0.006 1.27,-0.5588 1.27,-1.2192 v -32.2981 c 2.1336,2.9464 5.588,4.8768 9.4488,4.8768 6.7056,0 12.0396,-5.6388 12.0396,-12.3952 0,-6.807187 -5.334,-12.344387 -12.0396,-12.344387 -3.8608,0 -7.3152,1.9304 -9.4488,4.826 v -3.6068 c 0,-0.6604 -0.5588,-1.2192 -1.27,-1.2192 -0.6604,0 -1.2192,0.5588 -1.2192,1.2192 v 10.617187 0.508 0.508 z m 2.4892,-40.2229 c 0.2032,-5.283187 4.4196,-9.448787 9.4488,-9.448787 5.2832,0 9.5504,4.3688 9.5504,9.855187 0,5.4864 -4.2672,9.906 -9.5504,9.9568 -5.1308,-0.0508 -9.4488,-4.4704 -9.4488,-9.9568 z" />
      <path
         style="display:inline;fill:none;stroke:#000000;stroke-width:1.74846;stroke-linecap:butt;stroke-linejoin:miter;stroke-opacity:1"
         d="m 80.731109,139.39022 30.549691,0.0715"
         id="path918"
         sodipodi:nodetypes="cc" />
    </g>
    <g
       transform="matrix(1.1552711,0,0,1.1552711,-23.08281,-65.923134)"
       id="g1048"
       style="stroke-width:0.865598">
      <g
         id="g993"
         transform="matrix(1.7690508,0,0,1.9054535,132.88425,59.118474)"
         style="stroke-width:0.124741">
        <path
           id="path964"
           fill="none"
           d="M 28.293,22.8 A 4.61,4.61 0 0 0 25.5,22.274 v 8.979 c 2.451,-0.228 4.84,-1.616 4.84,-4.368 A 4.3,4.3 0 0 0 28.293,22.8 Z"
           style="stroke-width:0.0163509" />
        <path
           id="path966"
           fill="none"
           d="m 24.5,22.5 a 4.559,4.559 0 0 0 -0.848,0.392 3.1,3.1 0 0 0 -1.618,2.758 c -0.135,1.488 1.482,2.039 1.55,2.062 a 0.5,0.5 0 0 1 -0.309,0.951 3.076,3.076 0 0 1 -2.239,-3.048 4.053,4.053 0 0 1 2.1,-3.581 5.519,5.519 0 0 1 1.36,-0.578 v -4.787 c -3.38,1.726 -6.843,3.532 -6.843,7.9 a 6.327,6.327 0 0 0 2.253,5.071 7.694,7.694 0 0 0 4.59,1.647 z"
           style="stroke-width:0.0163509" />
        <circle
           id="circle968"
           fill="none"
           r="2.0710001"
           cy="38.668999"
           cx="18.729"
           style="stroke-width:0.0163509" />
        <path
           id="path970"
           fill="none"
           d="M 28.225,7.8 C 27.413,6.417 26.441,5.743 25.99,5.743 a 0.374,0.374 0 0 0 -0.092,0.011 c -0.192,0.053 -0.4,0.419 -0.4,1.29 v 7.98 a 10.536,10.536 0 0 0 2.7,-1.888 C 29.659,11.654 29.167,9.41 28.225,7.8 Z"
           style="stroke-width:0.0163509" />
        <g
           id="g999"
           style="opacity:1;stroke-width:0.124741">
          <path
             style="color:#000000;font-style:normal;font-variant:normal;font-weight:normal;font-stretch:normal;font-size:medium;line-height:normal;font-family:sans-serif;font-variant-ligatures:normal;font-variant-position:normal;font-variant-caps:normal;font-variant-numeric:normal;font-variant-alternates:normal;font-variant-east-asian:normal;font-feature-settings:normal;font-variation-settings:normal;text-indent:0;text-align:start;text-decoration:none;text-decoration-line:none;text-decoration-style:solid;text-decoration-color:#000000;letter-spacing:normal;word-spacing:normal;text-transform:none;writing-mode:lr-tb;direction:ltr;text-orientation:mixed;dominant-baseline:auto;baseline-shift:baseline;text-anchor:start;white-space:normal;shape-padding:0;shape-margin:0;inline-size:0;clip-rule:nonzero;display:inline;overflow:visible;visibility:visible;isolation:auto;mix-blend-mode:normal;color-interpolation:sRGB;color-interpolation-filters:linearRGB;solid-color:#000000;solid-opacity:1;vector-effect:none;fill:#000000;fill-opacity:1;fill-rule:nonzero;stroke:none;stroke-width:0.124741;stroke-linecap:butt;stroke-linejoin:miter;stroke-miterlimit:4;stroke-dasharray:none;stroke-dashoffset:0;stroke-opacity:1;color-rendering:auto;image-rendering:auto;shape-rendering:auto;text-rendering:auto;enable-background:accumulate;stop-color:#000000;stop-opacity:1"
             d="M 28.786,21.932 C 27.783648,21.382057 26.63675,21.152747 25.5,21.275 v -5.12 c 1.262555,-0.582841 2.420672,-1.369335 3.428,-2.328 1.84,-1.875 1.289,-4.6 0.159,-6.532 C 28.249,5.865 26.811,4.465 25.636,4.789 25.118,4.93 24.5,5.435 24.5,7.044 v 8.5 l -0.365,0.187 c -3.505,1.789 -7.478,3.817 -7.478,8.834 -0.07488,2.246636 0.890737,4.40221 2.617,5.842 1.490329,1.179621 3.325715,1.83918 5.226,1.878 v 6.9 c 0.05153,1.942536 -1.47956,3.559974 -3.422,3.615 -1.08765,-0.04539 -2.132098,-0.438282 -2.98,-1.121 2.830665,0.593315 4.836596,-2.697433 3.013465,-4.941804 -1.823131,-2.244371 -5.45511,-0.955373 -5.454465,1.936804 0.005,0.115246 0.01671,0.230104 0.035,0.344 -0.02196,0.0551 -0.03381,0.1137 -0.035,0.173 0,2.553 2.966,4.609 5.421,4.609 2.494267,-0.05519 4.472806,-2.11964 4.422,-4.614 V 32.26 c 2.937,-0.241 5.84,-1.946 5.84,-5.373 0.138373,-1.998517 -0.845952,-3.908201 -2.554,-4.955 z M 25.5,7.044 c 0,-0.871 0.206,-1.237 0.4,-1.29 0.03009,-0.00747 0.061,-0.011161 0.092,-0.011 0.451,0 1.423,0.674 2.235,2.057 0.942,1.61 1.434,3.854 -0.02,5.336 -0.795426,0.767026 -1.706563,1.404147 -2.7,1.888 z M 18.729,36.6 c 1.844951,8.91e-4 2.767725,2.231592 1.46299,3.535697 C 18.887256,41.439802 16.657,40.515951 16.657,38.671 16.6581,37.527285 17.585285,36.600551 18.729,36.6 Z m 1.181,-6.96 c -1.491716,-1.253282 -2.322831,-3.123937 -2.253,-5.071 0,-4.366 3.463,-6.172 6.843,-7.9 v 4.791 c -0.477194,0.13083 -0.934627,0.325239 -1.36,0.578 -1.304582,0.717365 -2.110843,2.092232 -2.1,3.581 -0.04019,1.408999 0.882453,2.665019 2.239,3.048 0.629363,0.196961 0.933936,-0.740413 0.309,-0.951 -0.068,-0.023 -1.685,-0.574 -1.55,-2.062 -0.0123,-1.145734 0.608386,-2.204821 1.614,-2.754 0.268168,-0.162123 0.552337,-0.296165 0.848,-0.4 v 8.781 c -1.667648,-0.03564 -3.278548,-0.612265 -4.59,-1.643 z m 5.59,1.617 v -8.981 c 0.963162,-0.123188 1.940629,0.0609 2.793,0.526 1.409189,0.856501 2.204421,2.443468 2.047,4.085 0,2.752 -2.389,4.14 -4.84,4.368 z"
             id="path1001" />
          <path
             id="path1003"
             style="color:#000000;font-style:normal;font-variant:normal;font-weight:normal;font-stretch:normal;font-size:medium;line-height:normal;font-family:sans-serif;font-variant-ligatures:normal;font-variant-position:normal;font-variant-caps:normal;font-variant-numeric:normal;font-variant-alternates:normal;font-variant-east-asian:normal;font-feature-settings:normal;font-variation-settings:normal;text-indent:0;text-align:start;text-decoration:none;text-decoration-line:none;text-decoration-style:solid;text-decoration-color:#000000;letter-spacing:normal;word-spacing:normal;text-transform:none;writing-mode:lr-tb;direction:ltr;text-orientation:mixed;dominant-baseline:auto;baseline-shift:baseline;text-anchor:start;white-space:normal;shape-padding:0;shape-margin:0;inline-size:0;clip-rule:nonzero;display:inline;overflow:visible;visibility:visible;isolation:auto;mix-blend-mode:normal;color-interpolation:sRGB;color-interpolation-filters:linearRGB;solid-color:#000000;solid-opacity:1;vector-effect:none;fill-opacity:1;fill-rule:nonzero;stroke:none;stroke-width:0.124741;stroke-linecap:butt;stroke-linejoin:miter;stroke-miterlimit:4;stroke-dasharray:none;stroke-dashoffset:0;stroke-opacity:1;color-rendering:auto;image-rendering:auto;shape-rendering:auto;text-rendering:auto;enable-background:accumulate;stop-color:#000000;stop-opacity:1"
             d="m 26.168544,4.4966475 c -0.171852,-0.010579 -0.342757,0.00419 -0.511719,0.050781 -0.297444,0.080965 -0.62934,0.2735991 -0.875,0.6601563 -0.24533,0.3860391 -0.404296,0.9537892 -0.404296,1.7832031 v 8.3789061 l -0.259766,0.134766 c -1.752438,0.894468 -3.635986,1.851693 -5.095703,3.236328 -1.45871,1.383678 -2.484669,3.206855 -2.486328,5.763672 0,0 0,0.002 0,0.002 v 0.002 c -0.07533,2.296303 0.909409,4.499315 2.667968,5.976562 a 0.12336739,0.12336739 0 0 0 0.01953,0.01758 0.12336739,0.12336739 0 0 0 0.0039,0.0039 0.12336739,0.12336739 0 0 0 0.01367,0.0098 c 1.470691,1.15947 3.269339,1.80433 5.136719,1.882813 v 6.732422 0.002 a 0.12336739,0.12336739 0 0 0 0,0.0039 c 0.04867,1.834908 -1.39094,3.357927 -3.22461,3.414063 -0.81884,-0.03524 -1.597277,-0.304369 -2.292969,-0.730469 1.17347,-0.0043 2.175338,-0.59466 2.728516,-1.501953 0.665797,-1.092004 0.709204,-2.574125 -0.253906,-3.759766 -0.963145,-1.185681 -2.421789,-1.445427 -3.626953,-1.017578 -1.205225,0.42787 -2.172217,1.550338 -2.171875,3.078125 v 0.002 0.002 a 0.12336739,0.12336739 0 0 0 0,0.0059 c 0.0048,0.109599 0.01707,0.21878 0.0332,0.328125 -0.01667,0.05525 -0.03195,0.113023 -0.0332,0.175781 a 0.12336739,0.12336739 0 0 0 0,0.002 v 0.002 c 0,1.351839 0.781392,2.554304 1.863281,3.414063 1.081804,0.85969 2.470319,1.388672 3.751953,1.388672 h 0.002 a 0.12336739,0.12336739 0 0 0 0.002,0 c 2.598141,-0.05749 4.664007,-2.210823 4.613281,-4.808594 v -0.002 -6.759766 c 1.438926,-0.146612 2.862813,-0.624393 3.949219,-1.503906 1.129692,-0.914557 1.887718,-2.259728 1.890625,-4.023438 v -0.0078 c 0.138057,-2.057703 -0.874144,-4.022094 -2.626953,-5.107422 l -0.002,-0.002 a 0.12336739,0.12336739 0 0 0 -0.01758,-0.01367 0.12336739,0.12336739 0 0 0 -0.0039,-0.002 0.12336739,0.12336739 0 0 0 -0.002,-0.002 0.12336739,0.12336739 0 0 0 -0.0039,0 c -0.0039,-0.0021 -0.0079,-0.0038 -0.01172,-0.0059 a 0.12336739,0.12336739 0 0 0 -0.0059,-0.002 0.12336739,0.12336739 0 0 0 -0.0293,-0.0059 h 0.01758 c -0.967081,-0.52332 -2.061147,-0.742852 -3.154297,-0.666016 v -4.816406 c 1.230994,-0.583384 2.368627,-1.348165 3.357422,-2.287109 a 0.12336739,0.12336739 0 0 0 0.0098,-0.0098 0.12336739,0.12336739 0 0 0 0.02344,-0.03125 c 0.942042,-0.974029 1.280825,-2.17413 1.230468,-3.363281 -0.05076,-1.1986484 -0.48242,-2.3885099 -1.060547,-3.3769534 a 0.12336739,0.12336739 0 0 0 -0.002,0 C 28.897314,6.4102212 28.319014,5.6870498 27.682216,5.1782882 27.204642,4.7967363 26.6841,4.5283832 26.168544,4.4966475 Z m -0.01758,0.3886719 c 0.405125,0.028439 0.850042,0.2449545 1.289063,0.5957031 0.585301,0.4676191 1.144289,1.1623879 1.552734,1.859375 h -0.002 c 0.551819,0.9434652 0.96253,2.0818078 1.009765,3.1972655 0.04705,1.110971 -0.257212,2.193067 -1.128906,3.087891 a 0.12336739,0.12336739 0 0 0 -0.0078,0.0078 0.12336739,0.12336739 0 0 0 -0.0039,0.0039 c -0.990457,0.941367 -2.126502,1.714364 -3.367187,2.28711 l -0.04297,0.01953 a 0.12336739,0.12336739 0 0 0 -0.07227,0.111328 v 5.246094 a 0.12336739,0.12336739 0 0 0 0.138671,0.123047 l 0.07813,-0.0098 c 1.093675,-0.11762 2.196867,0.101756 3.16211,0.628906 1.644212,1.007677 2.593143,2.845981 2.46289,4.769532 a 0.12336739,0.12336739 0 0 0 -0.002,0.01758 v 0.002 c 0,1.658717 -0.691903,2.877036 -1.746093,3.730469 -1.054018,0.853293 -2.477748,1.331359 -3.914063,1.449218 l -0.06445,0.0039 a 0.12336739,0.12336739 0 0 0 -0.115234,0.123047 v 6.994151 a 0.12336739,0.12336739 0 0 0 0,0.002 c 0.04864,2.387965 -1.839255,4.361078 -4.226563,4.416016 -1.172903,0 -2.494926,-0.498212 -3.509766,-1.304688 -1.014447,-0.806162 -1.716077,-1.907248 -1.716797,-3.107422 v -0.002 c 0.0013,-0.035 0.0092,-0.07083 0.02149,-0.101562 l 0.0078,-0.01953 a 0.12336739,0.12336739 0 0 0 0.0059,-0.06836 l -0.0039,-0.01563 v -0.0039 c -0.01632,-0.102631 -0.02648,-0.207345 -0.03125,-0.3125 v -0.0039 c 0,0 0,-0.002 0,-0.002 0.0038,-1.35936 0.849753,-2.321375 1.914063,-2.699218 1.066871,-0.378753 2.335063,-0.162529 3.195313,0.896484 0.860278,1.05905 0.81205,2.341901 0.222656,3.308594 -0.589381,0.966672 -1.709277,1.598314 -3.044922,1.318359 a 0.12336739,0.12336739 0 0 0 -0.136719,0.06641 l -0.06055,0.125 a 0.12336739,0.12336739 0 0 0 0.0332,0.15039 c 0.880327,0.708827 1.964492,1.116939 3.09375,1.164063 a 0.12336739,0.12336739 0 0 0 0.0059,0 h 0.0039 0.002 a 0.12336739,0.12336739 0 0 0 0.0039,0 c 2.046276,-0.05797 3.663444,-1.764545 3.611328,-3.810547 v -0.0039 -6.964844 a 0.12336739,0.12336739 0 0 0 -0.11914,-0.123047 l -0.07031,-0.002 a 0.12336739,0.12336739 0 0 0 -0.002,0 c -1.856321,-0.03792 -3.649092,-0.682468 -5.105468,-1.833985 l -0.002,-0.002 C 17.790472,28.798486 16.851551,26.70199 16.924403,24.516178 a 0.12336739,0.12336739 0 0 0 0,-0.0039 v -0.002 c 0,-2.457213 0.960132,-4.153398 2.363282,-5.484375 1.40295,-1.330786 3.257322,-2.28131 5.009765,-3.175781 l 0.404297,-0.207031 a 0.12336739,0.12336739 0 0 0 0.06641,-0.109375 V 6.9907882 c 0,-0.7796674 0.148865,-1.2706314 0.341797,-1.5742188 0.193445,-0.3043935 0.42877,-0.4338154 0.650391,-0.4941406 0.124484,-0.034326 0.255583,-0.046589 0.390625,-0.037109 z m -0.08594,0.609375 c -0.03886,-2.016e-4 -0.07493,0.00632 -0.111329,0.013672 a 0.12336739,0.12336739 0 0 0 -0.0332,0.00391 c -0.186541,0.050955 -0.315203,0.2208609 -0.402342,0.4589805 -0.08724,0.2384088 -0.140624,0.5685594 -0.140624,1.0195313 l 0.0078,8.0937498 a 0.12336739,0.12336739 0 0 0 0.177746,0.111328 l 0.103516,-0.05078 c 1.004839,-0.489378 1.924413,-1.134315 2.730469,-1.908203 a 0.12336739,0.12336739 0 0 0 0.04297,-0.04687 c 0.749541,-0.779905 1.004233,-1.762645 0.943359,-2.740235 -0.06153,-0.9881134 -0.43064,-1.9765036 -0.914063,-2.8027338 a 0.12336739,0.12336739 0 0 0 -0.002,0 C 28.051157,6.9380541 27.592337,6.4089 27.17245,6.0513351 26.753386,5.6944705 26.382817,5.4946944 26.065029,5.4946944 Z m 0,0.3886719 c 0.12197,0 0.474807,0.1387287 0.855468,0.4628906 0.381636,0.3249912 0.817113,0.8239577 1.212891,1.4980469 h -0.002 c 0.458523,0.7836774 0.806821,1.7221982 0.863281,2.6289062 0.05618,0.902075 -0.167427,1.764722 -0.84375,2.460937 a 0.12336739,0.12336739 0 0 0 -0.01758,0.01953 0.12336739,0.12336739 0 0 0 -0.0059,0.0059 c -0.696322,0.667911 -1.497573,1.211295 -2.353516,1.660156 l -0.0059,-7.6308589 c 2.09e-4,-0.4185839 0.0515,-0.7086529 0.115235,-0.8828126 0.06358,-0.1737209 0.143244,-0.2175323 0.140625,-0.2167968 0.01536,-0.00355 0.03003,-0.00592 0.04102,-0.00586 z M 24.63143,16.375554 a 0.12336739,0.12336739 0 0 0 -0.04102,0.01367 l -0.105469,0.05273 a 0.12336739,0.12336739 0 0 0 -0.002,0 c -1.690455,0.864232 -3.415932,1.752341 -4.732422,2.992187 -1.315477,1.238892 -2.213183,2.8428 -2.214843,5.074219 v 0.0039 c -0.07072,2.005417 0.783739,3.931688 2.320312,5.222656 a 0.12336739,0.12336739 0 0 0 0.002,0.002 l 0.119141,0.09766 a 0.12336739,0.12336739 0 0 0 0.09571,0.02535 c 1.305748,0.962786 2.866511,1.525345 4.494141,1.560547 l 0.07422,0.002 a 0.12336739,0.12336739 0 0 0 0.126953,-0.123046 v -8.955125 a 0.12336739,0.12336739 0 0 0 -0.164064,-0.117188 l -0.0957,0.0332 c -0.306358,0.107591 -0.600813,0.248384 -0.878906,0.416016 -1.063705,0.581533 -1.720837,1.700636 -1.712891,2.912109 -1.83e-4,0.0021 1.77e-4,0.0038 0,0.0059 v 0.0039 0.002 c -0.06575,0.806027 0.345786,1.380848 0.769531,1.730469 0.426527,0.351915 0.875639,0.503289 0.91211,0.515625 0.111257,0.03749 0.1585,0.09117 0.1875,0.158203 0.0282,0.0652 0.03073,0.14981 0.0059,0.226562 -0.02522,0.07639 -0.0766,0.144123 -0.136719,0.179688 -0.0623,0.03686 -0.130626,0.05088 -0.240234,0.01758 a 0.12336739,0.12336739 0 0 0 -0.0039,0 0.12336739,0.12336739 0 0 0 -0.0059,-0.0039 c -1.271672,-0.359184 -2.13534,-1.53285 -2.097664,-2.8536 a 0.12336739,0.12336739 0 0 0 0,-0.0039 v -0.002 c -0.01032,-1.417591 0.755859,-2.7271 1.998047,-3.410157 a 0.12336739,0.12336739 0 0 0 0.0059,-0.0039 l 0.002,-0.002 c 0.409598,-0.243109 0.852907,-0.428682 1.3125,-0.554687 a 0.12336739,0.12336739 0 0 0 0.002,0 l 0.05273,-0.01563 a 0.12336739,0.12336739 0 0 0 0.08789,-0.11914 v -4.960938 a 0.12336739,0.12336739 0 0 0 -0.136718,-0.123046 z m -0.253906,0.5625 v 4.332031 c -0.44019,0.132816 -0.866597,0.31093 -1.263672,0.546875 -1.36206,0.752019 -2.205206,2.188095 -2.195313,3.74414 0,0 0,0.002 0,0.002 0,0 0,0.002 0,0.002 -0.03986,1.492439 0.939305,2.823626 2.375,3.232421 0.204015,0.06385 0.403713,0.0389 0.558594,-0.05273 0.152549,-0.09025 0.258737,-0.233124 0.310547,-0.392578 0.05186,-0.159603 0.05076,-0.339481 -0.01953,-0.501953 -0.07098,-0.16407 -0.216439,-0.30448 -0.419921,-0.373047 -0.02976,-0.01006 -0.423945,-0.14602 -0.789063,-0.447266 -0.365738,-0.30176 -0.689924,-0.739563 -0.628906,-1.412109 a 0.12336739,0.12336739 0 0 0 0,-0.01172 v -0.0039 -0.0039 a 0.12336739,0.12336739 0 0 0 0,-0.002 c -0.01151,-1.071758 0.566782,-2.060341 1.505859,-2.576172 a 0.12336739,0.12336739 0 0 0 0.01563,-0.0078 h 0.002 c 0.17222,-0.103982 0.3599,-0.182035 0.548829,-0.259765 v 8.251953 c -1.553372,-0.07476 -3.048989,-0.611865 -4.273438,-1.574219 a 0.12336739,0.12336739 0 0 0 -0.002,-0.002 h -0.002 l -0.0059,-0.0059 c -1.435903,-1.214739 -2.237356,-3.020141 -2.169922,-4.90039 a 0.12336739,0.12336739 0 0 0 0,-0.0039 v -0.002 -0.002 c 0,-2.131684 0.831705,-3.610143 2.091797,-4.796875 1.188261,-1.119082 2.768212,-1.962215 4.361329,-2.779296 z m 1.923828,5.052734 c -0.250698,-0.0074 -0.50296,0.005 -0.753907,0.03711 l -0.0625,0.0078 a 0.12336739,0.12336739 0 0 0 -0.107421,0.123047 v 8.976562 0.06836 a 0.12336739,0.12336739 0 0 0 0.08789,0.117188 0.12336739,0.12336739 0 0 0 0.125,0.07422 c 1.255886,-0.116827 2.499321,-0.529172 3.441406,-1.279297 0.941405,-0.749581 1.574914,-1.848708 1.576172,-3.279297 0.157499,-1.705708 -0.669389,-3.354164 -2.130859,-4.248047 -0.0023,-0.0014 -0.0035,-0.0044 -0.0059,-0.0059 a 0.12336739,0.12336739 0 0 0 -0.0039,-0.002 0.12336739,0.12336739 0 0 0 -0.0078,-0.0039 c -0.0062,-0.0034 -0.01332,-0.0045 -0.01953,-0.0078 -0.661536,-0.357183 -1.393571,-0.556092 -2.138672,-0.578125 z m 0.03516,0.410156 c 0.67316,0.02193 1.333778,0.191616 1.929687,0.515625 1.343133,0.817595 2.101718,2.329319 1.953125,3.894531 -1.24e-4,0.0013 1.26e-4,0.0026 0,0.0039 a 0.12336739,0.12336739 0 0 0 -0.002,0.01367 v 0.0039 c 0,1.319929 -0.560465,2.289517 -1.425781,2.978515 -0.812236,0.646733 -1.903234,1.020044 -3.023438,1.15625 v -8.542968 c 0.189586,-0.01704 0.379606,-0.02959 0.56836,-0.02344 z m -7.535155,13.951172 c -1.249034,6.02e-4 -2.264422,1.016664 -2.265625,2.265625 0,1.00121 0.611988,1.765969 1.398437,2.091797 0.78656,0.325872 1.760753,0.217419 2.46875,-0.490234 0.708053,-0.707713 0.81569,-1.682122 0.490234,-2.46875 -0.325483,-0.786697 -1.090669,-1.397955 -2.091796,-1.398438 z m 0,0.388672 c 0.844265,4.08e-4 1.463191,0.502753 1.734375,1.158203 0.27116,0.655398 0.186871,1.448182 -0.410157,2.044922 -0.596996,0.596706 -1.387353,0.677872 -2.042968,0.40625 -0.655591,-0.271612 -1.158203,-0.888238 -1.158204,-1.732422 10e-4,-1.038673 0.838356,-1.876452 1.876954,-1.876953 z" />
        </g>
      </g>
    </g>
  </g>
</svg>
